# AST/ASF file generated using VICON BodyLanguage
# -----------------------------------------------
:version 1.10
:name VICON
:units
  mass 1.0
  length 0.45
  angle deg
:documentation
   .ast/.asf automatically generated from VICON data using
   VICON BodyBuilder and BodyLanguage model FoxedUp or BRILLIANT.MOD
:root
   order TX TY TZ RX RY RZ
   axis XYZ
   position 0 0 0  
   orientation 0 -0 0 
:bonedata
  begin
     id 1 
     name lhipjoint
     direction 0.515797 -0.759363 0.396637 
     length 2.47888 
     axis 0 -0 0  XYZ
  end
  begin
     id 2 
     name lfemur
     direction 0.34202 -0.939693 0  
     length 6.81885  
     axis 0 -0 20  XYZ
    dof rx ry rz
    limits (-160.0 20.0)
           (-70.0 70.0)
           (-60.0 70.0)
  end
  begin
     id 3 
     name ltibia
     direction 0.342037 -0.939687 0   
     length 7.89258   
     axis 0 -0 20   XYZ
    dof rx
    limits (-10.0 170.0)
  end
  begin
     id 4 
     name lfoot
     direction 0.173497 -0.476678 0.861787   
     length 2.51543   
     axis -90 -1.13533e-015 20   XYZ
    dof rx rz
    limits (-45.0 90.0)
           (-70.0 20.0)
  end
  begin
     id 5 
     name ltoes
     direction 1.53564e-011 -4.21897e-011 1   
     length 1.21388   
     axis -90 -1.13533e-015 20   XYZ
    dof rx
    limits (-90.0 20.0)
  end
  begin
     id 6 
     name rhipjoint
     direction -0.489454 -0.772941 0.403729   
     length 2.43534  
     axis 0 -0 0  XYZ 
  end
  begin
     id 7 
     name rfemur
     direction -0.34202 -0.939693 0   
     length 7.10357   
     axis 0 -0 -20   XYZ
    dof rx ry rz
    limits (-160.0 20.0)
           (-70.0 70.0)
           (-70.0 60.0)
  end
  begin
     id 8 
     name rtibia
     direction -0.34202 -0.939693 0   
     length 9.16127   
     axis 0 -0 -20   XYZ
    dof rx
    limits (-10.0 170.0)
 end
 begin
     id 9 
     name rfoot
     direction -0.270974 -0.748671 0.605033   
     length 1.74894  
     axis -90 1.13533e-015 -20   XYZ
    dof rx rz
    limits (-45.0 90.0)
           (-20.0 70.0)
  end
  begin
     id 10 
     name rtoes
     direction -1.53557e-011 -4.21759e-011 1   
     length 0.787585   
     axis -90 1.13533e-015 -20   XYZ
    dof rx
    limits (-90.0 20.0)
  end
  begin
     id 11 
     name lowerback
     direction -0.0140249 0.999561 0.0260968   
     length 2.16963   
     axis 0 -0 0   XYZ
    dof rx ry rz
    limits (-20.0 45.0)
           (-30.0 30.0)
           (-30.0 30.0)
  end
  begin
     id 12 
     name upperback
     direction 0.00860018 0.999959 -0.002711   
     length 2.1726   
     axis 0 -0 0   XYZ
    dof rx ry rz
    limits (-20.0 45.0)
           (-30.0 30.0)
           (-30.0 30.0)
  end
  begin
     id 13 
     name thorax
     direction 0.015211 0.999782 -0.0143191   
     length 2.17061   
     axis 0 -0 0   XYZ
    dof rx ry rz
    limits (-20.0 45.0)
           (-30.0 30.0)
           (-30.0 30.0)
  end
  begin
     id 14 
     name lowerneck
     direction -0.0140143 0.999447 0.030145   
     length 2.26749   
     axis 0 -0 0   XYZ
    dof rx ry rz
    limits (-20.0 45.0)
           (-30.0 30.0)
           (-30.0 30.0)
  end
  begin
     id 15 
     name upperneck
     direction 0.118062 0.961438 -0.248392   
     length 2.22728   
     axis 0 -0 0   XYZ
    dof rx ry rz
    limits (-20.0 45.0)
           (-30.0 30.0)
           (-30.0 30.0)
  end
  begin
     id 16
     name head
     direction 0.0431885 0.9954 -0.085514  
     length 2.28786  
     axis 0 -0 0   XYZ
    dof rx ry rz
    limits (-20.0 45.0)
           (-30.0 30.0)
           (-30.0 30.0)
  end
  begin
     id 17 
     name lclavicle
     direction 0.912126 0.409548 0.0172323  
     length 4.31571  
     axis 0 -0 0   XYZ
    dof ry rz
    limits (-20.0 10.0)
           (0.0 20.0)
  end
  begin
     id 18 
     name lhumerus
     direction 1 -4.48977e-011 1.93091e-027   
     length 5.13658   
     axis 180 -30 -90   XYZ
    dof rx ry rz
    limits (-60.0 90.0)
           (-90.0 90.0)
           (-90.0 90.0)
  end
  begin
     id 19
     name lradius
     direction 1 -4.48916e-011 6.84018e-027   
     length 3.22473   
     axis 180 -30 -90   XYZ
    dof rx
    limits (-10.0 170.0)
  end
  begin
     id 20
     name lwrist
     direction 1 -4.48987e-011 7.01981e-027   
     length 1.61236   
     axis -4.37994e-015 90 90   XYZ
    dof ry
    limits (-180.0 0.0)
 end
  begin
     id 21 
     name lhand
     direction 1 -4.49037e-011 1.40335e-026   
     length 0.936406   
     axis -8.96029e-015 90 90   XYZ
    dof rx rz
    limits (-90.0 90.0)
           (-45.0 45.0)
  end
  begin
     id 22 
     name lfingers
     direction 1 -4.48886e-011 2.8104e-026   
     length 0.754955   
     axis -1.79203e-014 90 90   XYZ
    dof rx
    limits (0.0 90.0)
  end
  begin
     id 23
     name lthumb
     direction 0.707107 -6.34937e-011 0.707107   
     length 1.08397   
     axis -90 45 -4.48555e-014   XYZ
    dof rx rz
    limits (-45.0 45.0)
           (-45.0 45.0)
  end
  begin
     id 24 
     name rclavicle
     direction -0.947962 0.317997 0.0156638   
     length 4.86918  
     axis 0 -0 0   XYZ 
    dof ry rz
    limits (-10.0 20.0)
           (-20.0 0.0)
  end
  begin
     id 25 
     name rhumerus
     direction -1 -4.48951e-011 2.80534e-018  
     length 5.60911   
     axis 180 30 90   XYZ
    dof rx ry rz
    limits (-90.0 60.0)
           (-90.0 90.0)
           (-90.0 90.0)
  end
  begin
     id 26 
     name rradius
     direction -1 -4.4898e-011 2.11315e-027   
     length 3.38704   
     axis 180 30 90   XYZ
    dof rx
    limits (-10.0 170.0)
  end
  begin
     id 27 
     name rwrist
     direction -1 -4.48933e-011 7.02314e-027   
     length 1.69352   
     axis -4.37994e-015 -90 -90   XYZ
    dof ry
    limits (-180.0 0.0)
  end
  begin
     id 28
     name rhand
     direction -1 -4.48937e-011 1.40458e-026   
     length 0.755878   
     axis -8.96029e-015 -90 -90   XYZ
    dof rx rz
    limits (-90.0 90.0)
           (-45.0 45.0)
  end
  begin
     id 29
     name rfingers
     direction -1 -4.4901e-011 2.80737e-026   
     length 0.609409   
     axis -1.79203e-014 -90 -90   XYZ
    dof rx
    limits (0.0 90.0)
  end
  begin
     id 30
     name rthumb
     direction -0.707107 -6.34968e-011 0.707107   
     length 0.874992   
     axis -90 -45 4.48555e-014   XYZ
    dof rx rz
    limits (-45.0 45.0)
           (-45.0 45.0)
  end
:hierarchy
  begin
    root lhipjoint rhipjoint lowerback
    lhipjoint lfemur
    lfemur ltibia
    ltibia lfoot
    lfoot ltoes
    rhipjoint rfemur
    rfemur rtibia
    rtibia rfoot
    rfoot rtoes
    lowerback upperback
    upperback thorax
    thorax lowerneck lclavicle rclavicle
    lowerneck upperneck
    upperneck head
    lclavicle lhumerus
    lhumerus lradius
    lradius lwrist
    lwrist lhand lthumb
    lhand lfingers
    rclavicle rhumerus
    rhumerus rradius
    rradius rwrist
    rwrist rhand rthumb
    rhand rfingers
  end

#!OML:ASF C:\ViconDB\ViconDB\414\Spring2016\041811\Spring2016.ASF
:FULLY-SPECIFIED
:DEGREES
47
root 9.8333 18.1537 4.04116 -175.97 -0.967229 -179.431
lowerback -4.39042 0.986968 -2.24395
upperback 0.00184351 1.42574 -0.49467
thorax 2.42067 0.679553 0.840332
lowerneck -8.84545 -4.03808 -11.2745
upperneck 14.6006 -7.45958 16.865
head 6.93497 -3.33621 6.72312
rclavicle 1.59649e-014 3.57812e-015
rhumerus -43.4989 -20.4263 -81.9041
rradius 35.0095
rwrist 40.7544
rhand -31.8388 -13.0302
rfingers 7.12502
rthumb -5.09305 -42.949
lclavicle 1.59649e-014 3.57812e-015
lhumerus -40.2501 -1.27276 85.8919
lradius 28.6208
lwrist -33.7242
lhand -26.1531 13.9349
lfingers 7.12502
lthumb 0.397911 43.9143
rfemur -4.64012 -14.9933 16.6851
rtibia 19.9005
rfoot -169.237 6.0828
rtoes -13.192
lfemur -9.98409 -3.4977 -13.4795
ltibia 27.3404
lfoot -23.4347 9.95151
ltoes -11.1268
48
root 9.81657 18.1519 4.03889 -175.972 -1.08299 -179.458
lowerback -4.29792 0.998712 -2.18268
upperback 0.0144191 1.4373 -0.579055
thorax 2.38502 0.686514 0.718328
lowerneck -8.8141 -4.08313 -11.2141
upperneck 14.5221 -7.5278 16.8838
head 6.91402 -3.36735 6.71019
rclavicle -4.11981e-014 0
rhumerus -43.6113 -20.649 -81.8925
rradius 34.6809
rwrist 42.7499
rhand -32.7903 -13.2841
rfingers 7.12502
rthumb -6.01177 -43.1788
lclavicle -4.11981e-014 0
lhumerus -40.1996 -1.21389 85.7651
lradius 28.6144
lwrist -34.0156
lhand -26.1044 13.6188
lfingers 7.12502
lthumb 0.444871 43.5981
rfemur -4.55373 -15.0503 16.5876
rtibia 19.8249
rfoot -169.3 6.07759
rtoes -13.0582
lfemur -10.1262 -3.34395 -13.5456
ltibia 27.5155
lfoot -23.4307 9.68073
ltoes -11.1366
49
root 9.79736 18.149 4.03521 -175.988 -1.12855 -179.489
lowerback -4.17088 1.00537 -2.18691
upperback 0.0446772 1.44417 -0.56546
thorax 2.34426 0.690595 0.732832
lowerneck -8.89509 -4.14782 -11.3596
upperneck 14.5033 -7.57673 16.8983
head 6.9368 -3.38957 6.73477
rclavicle 2.05991e-014 -1.15295e-014
rhumerus -43.5995 -20.4501 -81.9985
rradius 34.755
rwrist 42.9916
rhand -32.9687 -13.1103
rfingers 7.12502
rthumb -6.18395 -43
lclavicle 2.05991e-014 -1.15295e-014
lhumerus -40.1407 -1.01378 85.815
lradius 28.576
lwrist -34.1136
lhand -26.1079 13.5336
lfingers 7.12502
lthumb 0.441549 43.5129
rfemur -4.45794 -15.1835 16.4523
rtibia 19.7564
rfoot -169.245 6.1634
rtoes -12.6467
lfemur -10.2255 -3.03955 -13.6215
ltibia 27.687
lfoot -23.3747 9.31781
ltoes -11.1786
50
root 9.77748 18.1469 4.03026 -175.985 -1.26911 -179.426
lowerback -3.96956 1.00604 -1.9548
upperback -0.0014846 1.42911 -0.662284
thorax 2.19234 0.687659 0.498018
lowerneck -8.88309 -4.17849 -11.3054
upperneck 14.4802 -7.65621 16.9978
head 6.94194 -3.42364 6.75062
rclavicle 3.15074e-014 -2.46493e-014
rhumerus -43.7415 -20.5592 -82.2227
rradius 35.0781
rwrist 42.3503
rhand -32.6693 -13.126
rfingers 7.12502
rthumb -5.89493 -43.024
lclavicle 3.15074e-014 -2.46493e-014
lhumerus -40.2178 -1.19211 85.7819
lradius 28.5938
lwrist -34.0858
lhand -26.0729 13.5422
lfingers 7.12502
lthumb 0.475354 43.5215
rfemur -4.38865 -15.3037 16.4389
rtibia 19.7059
rfoot -169.264 6.18619
rtoes -12.3032
lfemur -10.3528 -2.91336 -13.5935
ltibia 27.8514
lfoot -23.3514 8.99881
ltoes -11.179
51
root 9.75815 18.1451 4.02482 -175.977 -1.40637 -179.438
lowerback -4.03909 1.00908 -2.12983
upperback 0.129025 1.44594 -0.533365
thorax 2.35763 0.692406 0.732266
lowerneck -8.93744 -4.28899 -11.6178
upperneck 14.3307 -7.72825 17.0874
head 6.93227 -3.45962 6.82626
rclavicle 8.54774e-015 4.37326e-015
rhumerus -43.6288 -20.336 -82.1891
rradius 35.2154
rwrist 42.4525
rhand -32.9618 -13.0968
rfingers 7.12502
rthumb -6.17734 -42.9867
lclavicle 8.54774e-015 4.37326e-015
lhumerus -40.0455 -1.17882 86.0757
lradius 28.6122
lwrist -34.1318
lhand -26.048 13.7236
lfingers 7.12502
lthumb 0.499338 43.7027
rfemur -4.32409 -15.4973 16.3347
rtibia 19.6747
rfoot -169.249 6.22571
rtoes -12.1503
lfemur -10.4604 -2.9152 -13.6599
ltibia 28
lfoot -23.4208 8.82053
ltoes -11.1148
52
root 9.73403 18.1426 4.01731 -175.962 -1.47414 -179.515
lowerback -4.00466 1.03651 -2.14291
upperback 0.172629 1.4841 -0.616469
thorax 2.38399 0.710803 0.656288
lowerneck -8.97018 -4.37025 -11.529
upperneck 14.2686 -7.84396 17.0856
head 6.93414 -3.50971 6.79529
rclavicle 3.3048e-015 4.77083e-015
rhumerus -43.6317 -20.1576 -82.4728
rradius 35.4906
rwrist 42.0547
rhand -32.9007 -13.2048
rfingers 7.12502
rthumb -6.11831 -43.0964
lclavicle 3.3048e-015 4.77083e-015
lhumerus -40.0752 -1.38343 86.1457
lradius 28.7232
lwrist -34.034
lhand -26.1461 13.7671
lfingers 7.12502
lthumb 0.404673 43.7465
rfemur -4.28416 -15.5726 16.155
rtibia 19.6549
rfoot -169.238 6.2131
rtoes -12.0224
lfemur -10.5484 -2.8521 -13.822
ltibia 28.1393
lfoot -23.4932 8.65088
ltoes -10.9546
53
root 9.71139 18.1385 4.00825 -176 -1.50673 -179.533
lowerback -3.90608 1.07343 -2.25931
upperback 0.216358 1.53675 -0.555293
thorax 2.36759 0.735798 0.785692
lowerneck -8.93113 -4.47454 -11.7041
upperneck 14.1403 -7.93041 17.0842
head 6.90761 -3.5577 6.81459
rclavicle -2.18415e-014 1.11319e-014
rhumerus -43.673 -20.0612 -82.4891
rradius 35.734
rwrist 41.8059
rhand -32.9456 -13.1393
rfingers 7.12502
rthumb -6.16173 -43.0296
lclavicle -2.18415e-014 1.11319e-014
lhumerus -39.9412 -1.06035 86.1335
lradius 28.5526
lwrist -34.6245
lhand -26.2253 13.605
lfingers 7.12502
lthumb 0.328105 43.5845
rfemur -4.1945 -15.5398 16.0379
rtibia 19.6582
rfoot -169.271 6.16369
rtoes -12.0952
lfemur -10.5553 -2.73267 -13.9173
ltibia 28.2535
lfoot -23.5427 8.46571
ltoes -10.9525
54
root 9.68459 18.1348 4.00207 -176.053 -1.60634 -179.532
lowerback -3.73196 1.07935 -2.22455
upperback 0.248 1.53967 -0.597924
thorax 2.30439 0.738483 0.719222
lowerneck -8.92038 -4.52569 -11.6273
upperneck 14.0561 -8.00637 17.0994
head 6.88927 -3.59117 6.79614
rclavicle 1.17531e-014 2.34566e-014
rhumerus -43.7407 -19.9733 -82.626
rradius 36.0453
rwrist 41.6101
rhand -32.8914 -12.9864
rfingers 7.12502
rthumb -6.10932 -42.8783
lclavicle 1.17531e-014 2.34566e-014
lhumerus -39.9158 -0.954773 86.0918
lradius 28.5264
lwrist -34.8748
lhand -26.3449 13.7321
lfingers 7.12502
lthumb 0.212619 43.7118
rfemur -4.10501 -15.6097 15.9207
rtibia 19.6873
rfoot -169.293 6.12525
rtoes -12.1342
lfemur -10.5631 -2.77698 -14.0073
ltibia 28.3575
lfoot -23.5922 8.38137
ltoes -10.8661
55
root 9.65314 18.1319 3.9879 -176.082 -1.61218 -179.553
lowerback -3.71958 1.13319 -2.21492
upperback 0.321068 1.61296 -0.62692
thorax 2.37166 0.774204 0.688779
lowerneck -8.91388 -4.60487 -11.7129
upperneck 13.9354 -8.10712 17.22
head 6.87532 -3.63771 6.8398
rclavicle 2.54941e-014 7.95139e-015
rhumerus -43.7109 -19.8329 -82.7468
rradius 36.39
rwrist 40.936
rhand -32.6087 -13.1567
rfingers 7.12502
rthumb -5.8364 -43.0563
lclavicle 2.54941e-014 7.95139e-015
lhumerus -39.8429 -1.00803 86.2315
lradius 28.6716
lwrist -34.2537
lhand -26.2869 13.6032
lfingers 7.12502
lthumb 0.268663 43.5828
rfemur -4.02928 -15.6098 15.75
rtibia 19.7258
rfoot -169.299 6.09911
rtoes -12.8823
lfemur -10.5196 -3.00959 -14.177
ltibia 28.4557
lfoot -23.8266 8.50555
ltoes -10.7055
56
root 9.62498 18.1293 3.98099 -176.088 -1.68478 -179.641
lowerback -3.56518 1.15631 -2.34004
upperback 0.326959 1.64461 -0.639029
thorax 2.28706 0.789202 0.744512
lowerneck -8.8184 -4.67758 -11.9699
upperneck 13.7834 -8.21099 17.4968
head 6.84981 -3.69217 6.96879
rclavicle -2.84759e-014 2.18663e-014
rhumerus -43.8474 -19.8017 -82.6449
rradius 36.5313
rwrist 41.674
rhand -33.013 -13.0769
rfingers 7.12502
rthumb -6.22674 -42.9654
lclavicle -2.84759e-014 2.18663e-014
lhumerus -39.9175 -1.18457 86.3708
lradius 28.7985
lwrist -34.3953
lhand -26.2562 13.738
lfingers 7.12502
lthumb 0.29827 43.7175
rfemur -4.00842 -15.5875 15.5566
rtibia 19.7874
rfoot -169.37 5.99588
rtoes -12.746
lfemur -10.5562 -3.0465 -14.3681
ltibia 28.5522
lfoot -23.9114 8.43677
ltoes -10.5038
57
root 9.59094 18.1261 3.96831 -176.085 -1.68537 -179.681
lowerback -3.52248 1.17148 -2.36315
upperback 0.35787 1.66536 -0.65087
thorax 2.29399 0.799023 0.745782
lowerneck -8.85057 -4.69717 -11.8268
upperneck 13.7516 -8.20559 17.3101
head 6.83106 -3.68784 6.87771
rclavicle -2.41026e-015 2.10712e-014
rhumerus -43.8206 -19.5283 -82.7934
rradius 36.8674
rwrist 40.7699
rhand -32.7419 -13.0558
rfingers 7.12502
rthumb -5.96506 -42.9519
lclavicle -2.41026e-015 2.10712e-014
lhumerus -39.9008 -0.894326 86.3505
lradius 28.7792
lwrist -34.4324
lhand -26.3644 13.678
lfingers 7.12502
lthumb 0.193788 43.6577
rfemur -4.03157 -15.5083 15.3884
rtibia 19.9128
rfoot -169.423 5.88871
rtoes -12.6896
lfemur -10.5412 -3.08383 -14.5454
ltibia 28.6168
lfoot -24.0353 8.41961
ltoes -10.4191
58
root 9.56014 18.1224 3.95959 -176.126 -1.80668 -179.604
lowerback -3.36637 1.18619 -2.36922
upperback 0.385797 1.68118 -0.590598
thorax 2.23262 0.807726 0.808496
lowerneck -8.75883 -4.80488 -11.8759
upperneck 13.6156 -8.32305 17.281
head 6.79177 -3.75125 6.86209
rclavicle -2.26118e-014 1.70955e-014
rhumerus -43.8845 -19.7021 -82.5687
rradius 36.9165
rwrist 41.3988
rhand -32.9498 -13.0042
rfingers 7.12502
rthumb -6.16579 -42.8945
lclavicle -2.26118e-014 1.70955e-014
lhumerus -39.9016 -0.933538 86.5113
lradius 28.8415
lwrist -34.176
lhand -26.4042 13.7316
lfingers 7.12502
lthumb 0.155338 43.7113
rfemur -4.04201 -15.4872 15.3665
rtibia 20.1085
rfoot -169.525 5.75267
rtoes -12.5672
lfemur -10.5097 -3.16091 -14.5571
ltibia 28.6641
lfoot -24.1102 8.3002
ltoes -10.4324
59
root 9.52545 18.1196 3.95105 -176.168 -1.90259 -179.661
lowerback -3.26536 1.18962 -2.52692
upperback 0.465378 1.69029 -0.545206
thorax 2.25167 0.8095 0.942374
lowerneck -8.86734 -4.8538 -11.7433
upperneck 13.6095 -8.33973 17.0487
head 6.79679 -3.75444 6.75446
rclavicle -1.25731e-014 -9.54166e-015
rhumerus -43.7725 -19.4687 -82.6137
rradius 37.1788
rwrist 40.5311
rhand -32.7505 -13.117
rfingers 7.12502
rthumb -5.97331 -43.0128
lclavicle -1.25731e-014 -9.54166e-015
lhumerus -39.8318 -0.972563 86.768
lradius 28.8883
lwrist -33.9083
lhand -26.3937 13.9772
lfingers 7.12502
lthumb 0.165541 43.9568
rfemur -4.06014 -15.4233 15.1848
rtibia 20.3253
rfoot -169.598 5.57347
rtoes -12.6952
lfemur -10.4705 -3.30873 -14.746
ltibia 28.7169
lfoot -24.2312 8.29145
ltoes -10.3926
